<svg width="198" height="40px" viewBox="0 0 220 39" version="1.1" xmlns="http://www.w3.org/2000/svg" xmlns:xlink="http://www.w3.org/1999/xlink" role="presentation" aria-hidden="true" tabindex="-1">
    <g id="Symbols" stroke="none" stroke-width="1" fill="none" fill-rule="evenodd">
        <g id="Organisms-&amp;-Components/Navigation/FOS/.o-nav__fos-xl--darkbg" transform="translate(-20.000000, -31.000000)">
            <g id=".o-nav__fos-xl--darkbg">
                <g id="Atoms/Logos/Default/.a-logo__default--white" transform="translate(20.000000, 31.000000)">
                    <g id=".a-logo__default--white">
                        <path d="M88.4000204,26.1972414 C88.6681837,27.8693103 90.1877755,28.4924138 91.8459184,28.4924138 C93.5040612,28.4924138 94.7733673,27.7886207 94.8091224,26.9368966 C94.8672245,25.6458621 93.8571429,24.8793103 92.4269388,24.6013793 C91.4392041,24.4131034 88.476,23.8258621 88.476,23.8258621 C84.8736735,23.1668966 82.8222245,22.1224138 82.8222245,19.0517241 C82.8222245,15.0531034 86.2681224,12.4486207 91.1889184,12.4486207 C96.0292653,12.4486207 99.2338163,14.6631034 100.015959,18.0431034 L94.3621837,19.1682759 C94.17,17.9624138 93.0213673,16.8775862 91.1084694,16.8775862 C89.4458571,16.8775862 88.6100816,17.5768966 88.4581224,18.3927586 C88.3553265,18.9262069 88.6100816,19.37 90.3754898,19.7375862 C91.5151837,19.9841379 94.9432041,20.67 94.9432041,20.67 C98.6215102,21.4455172 100.306469,23.66 100.306469,26.5334483 C100.306469,30.8458621 96.5879388,33.1006897 91.4749592,33.1006897 C86.9072449,33.1006897 82.9831224,31.4286207 82.3350612,27.43 L88.4000204,26.1972414 Z" id="Path" fill="#FFFFFF" class="header__logoPath" fill-rule="nonzero">
                        </path>
                        <path d="M144.884143,17.3303448 C144.98552,18.119765 145.037764,18.9147531 145.040571,19.7106897 C145.040571,27.6317241 139.400204,33.3293103 131.54302,33.3293103 C123.685837,33.3293103 117.500204,27.3448276 117.500204,19.6703448 C117.500204,11.9958621 123.605388,6.01586207 131.426816,6.01586207 C137.23702,6.01586207 142.318714,8.74586207 144.146694,13.8606897 L137.961061,15.6537931 C136.441469,12.6862069 133.938612,11.9062069 131.426816,11.9062069 C127.185367,11.9062069 123.958469,15.2637931 123.958469,19.6703448 C123.958469,24.0768966 127.261347,27.4748276 131.619,27.4748276 C135.042551,27.4748276 137.532,25.6817241 138.506327,22.7948276 L130.528469,22.7948276 L130.528469,17.3303448 L144.884143,17.3303448 Z" id="Path" fill="#FFFFFF" class="header__logoPath" fill-rule="nonzero">
                        </path>
                        <polygon id="Path" fill="#FFFFFF" class="header__logoPath" fill-rule="nonzero" points="58.8707755 32.2982759 52.4929592 32.2982759 52.4929592 21.9655172 41.5206122 21.9655172 41.5206122 32.2982759 35.1025714 32.2982759 35.1025714 6.15482759 41.5206122 6.15482759 41.5206122 16.3396552 52.4929592 16.3396552 52.4929592 6.15482759 58.8707755 6.15482759">
                        </polygon>
                        <path d="M81.9775102,22.5034483 C81.9775102,28.7075862 77.0611837,32.8451724 71.2777959,32.8451724 C65.3647959,32.8451724 60.4618776,28.7075862 60.4618776,22.5034483 C60.4618776,16.2993103 65.3782041,12.1931034 71.2777959,12.1931034 C77.0745918,12.2065517 81.9775102,16.3396552 81.9775102,22.5034483 Z M75.9795918,22.5034483 C75.9795918,19.4596552 73.6867959,17.4334483 71.2733265,17.4334483 C69.9586351,17.4482719 68.7056238,17.9949678 67.7985046,18.9495329 C66.8913854,19.9040979 66.4070391,21.1856301 66.4553265,22.5034483 C66.4553265,25.5875862 68.7481224,27.577931 71.2777959,27.577931 C73.6912653,27.577931 75.9795918,25.5875862 75.9795918,22.5034483 Z" id="Shape" fill="#FFFFFF" class="header__logoPath" fill-rule="nonzero">
                        </path>
                        <path d="M117.701327,31.442069 C116.083261,32.3855012 114.245419,32.8834505 112.373816,32.8855172 C107.511122,32.8855172 104.583673,30.2317241 104.583673,25.1034483 L104.583673,17.6665517 L101.052857,17.6665517 L101.052857,12.7355172 L104.583673,12.7355172 L104.583673,7.49965517 L110.809531,6.15482759 L110.809531,12.7131034 L116.566102,12.7131034 L116.566102,17.6441379 L110.840816,17.6441379 L110.840816,24.457931 C110.840816,26.4841379 111.810673,27.3044828 113.446469,27.3044828 C114.440126,27.2695972 115.411939,27.0025084 116.284531,26.5244828 L117.701327,31.442069 Z" id="Path" fill="#FFFFFF" class="header__logoPath" fill-rule="nonzero">
                        </path>
                        <path d="M164.728224,19.89 L164.728224,32.2982759 L158.739245,32.2982759 L158.739245,30.8548276 C157.109644,32.2302174 155.030944,32.9533937 152.902224,32.8855172 C148.549041,32.8855172 145.630531,30.3482759 145.630531,26.4841379 C145.630531,22.62 148.549041,20.1724138 153.746939,20.1724138 L158.725837,20.1724138 L158.725837,19.7824138 C158.766447,19.0410882 158.490233,18.3175212 157.966385,17.7929622 C157.442538,17.2684033 156.72068,16.992543 155.981633,17.0344828 C154.113429,17.0344828 153.022898,17.7741379 152.71451,19.4910345 L146.841735,18.2806897 C147.695388,14.4972414 151.118939,12.1168966 155.78051,12.1168966 C161.268918,12.1258621 164.728224,14.8962069 164.728224,19.89 Z M158.739245,24.5744828 L158.739245,24.1262069 L154.457571,24.1262069 C152.902224,24.1262069 151.932367,24.9465517 151.932367,26.1568966 C151.932367,27.3672414 153.018429,28.1831034 154.654224,28.1831034 C156.795061,28.2010345 158.739245,26.7575862 158.739245,24.5744828 L158.739245,24.5744828 Z" id="Shape" fill="#FFFFFF" class="header__logoPath" fill-rule="nonzero">
                        </path>
                        <path d="M182.310796,31.442069 C180.693713,32.3839509 178.857728,32.8818147 176.987755,32.8855172 C172.125061,32.8855172 169.21102,30.2317241 169.21102,25.0810345 L169.21102,17.6665517 L165.671265,17.6665517 L165.671265,12.7355172 L169.21102,12.7355172 L169.21102,7.49965517 L175.432408,6.15482759 L175.432408,12.7131034 L181.18898,12.7131034 L181.18898,17.6441379 L175.423469,17.6441379 L175.423469,24.457931 C175.423469,26.4841379 176.397796,27.3044828 178.029122,27.3044828 C179.024276,27.2701261 179.99766,27.0030262 180.871653,26.5244828 L182.310796,31.442069 Z" id="Path" fill="#FFFFFF" class="header__logoPath" fill-rule="nonzero">
                        </path>
                        <path d="M202.847633,22.5034483 C202.847633,28.7075862 197.931306,32.8451724 192.152388,32.8451724 C186.239388,32.8451724 181.336469,28.7075862 181.336469,22.5034483 C181.336469,16.2993103 186.252796,12.1931034 192.152388,12.1931034 C197.949184,12.2065517 202.847633,16.3396552 202.847633,22.5034483 Z M196.858653,22.5034483 C196.858653,19.4596552 194.561388,17.4334483 192.152388,17.4334483 C190.836137,17.4458699 189.580806,17.9915142 188.671746,18.9463495 C187.762687,19.9011848 187.27713,21.1840913 187.325449,22.5034483 C187.325449,25.5875862 189.622714,27.577931 192.152388,27.577931 C194.561388,27.577931 196.858653,25.5875862 196.858653,22.5034483 L196.858653,22.5034483 Z" id="Shape" fill="#FFFFFF" class="header__logoPath" fill-rule="nonzero">
                        </path>
                        <path d="M218.758653,12.5965517 L218.48602,18.8275862 L217.355265,18.8275862 C213.002082,18.8275862 210.628837,21.0689655 210.628837,26.1658621 L210.628837,32.2982759 L204.40298,32.2982759 L204.40298,14.057931 L210.628837,12.7131034 L210.628837,16.4562069 C212.027755,14.1162069 214.168592,12.4217241 217.355265,12.4217241 C217.828818,12.4156038 218.300982,12.4744239 218.758653,12.5965517 Z" id="Path" fill="#FFFFFF" class="header__logoPath" fill-rule="nonzero">
                        </path>

                    </g>
                </g>
            </g>
        </g>
    </g>
</svg>
