<svg class="h-auto w-[194px] false" alt="The DreamHost Logo" enable-background="new 0 0 471.3 89.3" viewBox="0 0 471.3 89.3" xmlns="http://www.w3.org/2000/svg">
    <g fill="#071c26">
        <path d="m95.4 23.3h15.8c15.3 0 28.2 6.5 28.2 24 0 15.4-12.6 23.7-26.8 23.7h-17.2zm10.5 37.9h5.5c9.8 0 17.1-3.7 17.1-14.5 0-9.4-7.5-13.7-16.4-13.7h-6.2z"></path>
        <path d="m144.8 38.2h10.1v5.3h.1c2.2-4 5-6.1 9.4-6.1 1.1 0 2.4.1 3.4.3v9.2c-1.4-.4-2.8-.7-4.3-.7-7.7 0-8.6 4.4-8.6 11v13.7h-10.1z"></path>
        <path d="m202.1 65.3c-3.2 4.1-8.5 6.5-13.8 6.5-10.1 0-18.2-6.7-18.2-17.2 0-10.4 8.1-17.2 18.2-17.2 9.4 0 15.3 6.7 15.3 17.2v3.2h-23.4c.8 3.8 3.7 6.3 7.6 6.3 3.3 0 5.5-1.7 7.2-4zm-8.6-14.5c.1-3.4-2.6-6.2-6.2-6.2-4.4 0-6.9 3-7.1 6.2z"></path>
        <path d="m229.1 66.8h-.1c-2.2 3.5-6.3 4.9-10.4 4.9-6.1 0-11.6-3.5-11.6-10.1 0-11.3 13.7-11.5 22.1-11.5 0-3.6-3-5.9-6.5-5.9-3.3 0-6.1 1.5-8.2 3.9l-5.4-5.5c3.7-3.5 9.1-5.3 14.4-5.3 11.8 0 14.9 6 14.9 16.9v16.6h-9.3v-4zm-2.5-10.2c-3.1 0-10 .3-10 4.7 0 2.4 2.6 3.6 4.8 3.6 4 0 7.7-2.1 7.7-6.1v-2.2z"></path>
        <path d="m244.7 38.2h9.7v4.4h.1c1.3-2.6 4.6-5.3 9.6-5.3 4.6 0 8.3 1.9 10.1 5.9 2.4-4.2 5.5-5.9 10.4-5.9 8.9 0 11.6 6.3 11.6 14.2v19.3h-10.2v-19c0-3-1.1-5.6-4.4-5.6-4.6 0-6.1 3.3-6.1 7.3v17.3h-10.1v-17.2c0-2.4.1-7.3-4.5-7.3-5.3 0-6.1 4.1-6.1 8.3v16.3h-10.1z"></path>
        <path d="m302.5 23.3h10.5v17.7h20.4v-17.7h10.5v47.7h-10.5v-20.7h-20.4v20.6h-10.5z"></path>
        <path d="m366.6 37.4c10.1 0 18.2 6.7 18.2 17.2 0 10.4-8.1 17.2-18.2 17.2s-18.2-6.7-18.2-17.2 8.1-17.2 18.2-17.2zm0 25.4c5 0 8.1-3.4 8.1-8.3s-3-8.3-8.1-8.3c-5 0-8.1 3.4-8.1 8.3 0 5 3.1 8.3 8.1 8.3z"></path>
        <path d="m407.9 47.8c-1.5-1.8-3.4-2.8-5.9-2.8-1.7 0-3.7.7-3.7 2.7 0 4.8 17 .7 17 13.2 0 8.3-8.1 10.8-15.1 10.8-4.6 0-9.6-1.1-12.9-4.4l6.1-6.8c1.9 2.3 4.1 3.6 7.1 3.6 2.3 0 4.6-.6 4.6-2.4 0-5.3-17-.8-17-13.3 0-7.7 6.9-11 13.7-11 4.3 0 9.1 1.1 12.1 4.3z"></path>
        <path d="m442.5 46.3h-8.9v10.9c0 3.5.4 6.1 4.8 6.1 1.1 0 3.2-.1 4.1-.9v8.4c-2.2.8-4.7 1-7.1 1-6.7 0-11.9-2.8-11.9-9.9v-15.6h-6.5v-8.1h6.5v-9.7h10.1v9.7h8.9z"></path>
        <path d="m77.3 60c-4.9 2.7-10.5 4.2-16.5 4.1-17.8-.4-31.8-14.7-31.5-32.1.1-5.9 1.9-11.4 4.9-16-9.5 5.3-16 15.2-16.2 26.7-.4 17.3 13.7 31.7 31.4 32.1 11.8.2 22.1-5.7 27.9-14.8"></path>
    </g>
    <path d="m51.3 14.6c-4.8 0-9.3 1.2-13.3 3.4-2.5 4.1-3.9 8.8-4.1 13.6-.3 15.1 12 27.6 27.3 27.9 4.6 0 9.8-1.1 13.8-3.3 2.4-4.1 3.8-8.9 3.8-14 .2-15.2-12.2-27.6-27.5-27.6z" fill="#0073ec"></path>
    <path d="m446 23.5c0-.5.1-1 .3-1.5s.5-.8.8-1.2c.3-.3.7-.6 1.2-.8.4-.2.9-.3 1.4-.3s1 .1 1.4.3.8.4 1.2.8c.3.3.6.7.8 1.2s.3.9.3 1.5c0 .5-.1 1-.3 1.5-.2.4-.5.8-.8 1.2-.3.3-.7.6-1.2.8-.4.2-.9.3-1.4.3s-1-.1-1.4-.3-.8-.4-1.2-.8c-.3-.3-.6-.7-.8-1.2s-.3-1-.3-1.5zm.7 0c0 .4.1.9.2 1.2.2.4.4.7.6 1 .3.3.6.5 1 .7s.8.2 1.2.2.8-.1 1.2-.2c.4-.2.7-.4 1-.7s.5-.6.6-1c.2-.4.2-.8.2-1.2s-.1-.9-.2-1.2c-.2-.4-.4-.7-.6-1-.3-.3-.6-.5-1-.7s-.8-.2-1.2-.2-.8.1-1.2.2c-.4.2-.7.4-1 .7s-.5.6-.6 1c-.2.3-.2.7-.2 1.2zm1.6-2.2h1.6c1 0 1.5.4 1.5 1.2 0 .4-.1.7-.3.9s-.5.3-.8.3l1.2 1.9h-.7l-1.2-1.9h-.7v1.9h-.7zm.6 1.9h.7.4c.1 0 .3 0 .4-.1.1 0 .2-.1.3-.2s.1-.2.1-.4c0-.1 0-.3-.1-.4s-.1-.2-.2-.2-.2-.1-.3-.1-.2 0-.3 0h-.9z" fill="#071c26"></path>
</svg>
